<mxfile host="app.diagrams.net" modified="2024-03-10T17:17:47.643Z" agent="Mozilla/5.0 (Windows NT 10.0; Win64; x64) AppleWebKit/537.36 (KHTML, like Gecko) Chrome/122.0.0.0 Safari/537.36" etag="qBgfWzuGeMz50SkH9zx6" version="24.0.4" type="device">
  <diagram id="yPxyJZ8AM_hMuL3Unpa9" name="simple gitflow">
    <mxGraphModel dx="2074" dy="746" grid="1" gridSize="10" guides="1" tooltips="1" connect="1" arrows="1" fold="1" page="1" pageScale="1" pageWidth="1100" pageHeight="850" math="0" shadow="0">
      <root>
        <mxCell id="0" />
        <mxCell id="1" parent="0" />
        <mxCell id="hXmMG8xP3OP5kjvud1CD-25" style="edgeStyle=orthogonalEdgeStyle;rounded=0;orthogonalLoop=1;jettySize=auto;html=1;exitX=0.5;exitY=1;exitDx=0;exitDy=0;entryX=0.5;entryY=0;entryDx=0;entryDy=0;" edge="1" parent="1" source="hXmMG8xP3OP5kjvud1CD-1" target="hXmMG8xP3OP5kjvud1CD-12">
          <mxGeometry relative="1" as="geometry" />
        </mxCell>
        <mxCell id="hXmMG8xP3OP5kjvud1CD-29" style="edgeStyle=orthogonalEdgeStyle;rounded=0;orthogonalLoop=1;jettySize=auto;html=1;exitX=1;exitY=0.5;exitDx=0;exitDy=0;entryX=0;entryY=0.5;entryDx=0;entryDy=0;" edge="1" parent="1" source="hXmMG8xP3OP5kjvud1CD-1" target="hXmMG8xP3OP5kjvud1CD-15">
          <mxGeometry relative="1" as="geometry" />
        </mxCell>
        <mxCell id="hXmMG8xP3OP5kjvud1CD-1" value="8" style="ellipse;whiteSpace=wrap;html=1;aspect=fixed;" vertex="1" parent="1">
          <mxGeometry x="720" y="200" width="40" height="40" as="geometry" />
        </mxCell>
        <mxCell id="hXmMG8xP3OP5kjvud1CD-17" style="edgeStyle=orthogonalEdgeStyle;rounded=0;orthogonalLoop=1;jettySize=auto;html=1;exitX=1;exitY=0.5;exitDx=0;exitDy=0;entryX=0;entryY=0.5;entryDx=0;entryDy=0;" edge="1" parent="1" source="hXmMG8xP3OP5kjvud1CD-2" target="hXmMG8xP3OP5kjvud1CD-5">
          <mxGeometry relative="1" as="geometry" />
        </mxCell>
        <mxCell id="hXmMG8xP3OP5kjvud1CD-2" value="2" style="ellipse;whiteSpace=wrap;html=1;aspect=fixed;" vertex="1" parent="1">
          <mxGeometry x="240" y="200" width="40" height="40" as="geometry" />
        </mxCell>
        <mxCell id="hXmMG8xP3OP5kjvud1CD-3" value="&lt;div&gt;Def: {data, column}&lt;/div&gt;" style="text;html=1;align=center;verticalAlign=middle;whiteSpace=wrap;rounded=0;" vertex="1" parent="1">
          <mxGeometry x="50" y="260" width="110" height="30" as="geometry" />
        </mxCell>
        <mxCell id="hXmMG8xP3OP5kjvud1CD-18" style="edgeStyle=orthogonalEdgeStyle;rounded=0;orthogonalLoop=1;jettySize=auto;html=1;exitX=1;exitY=0.5;exitDx=0;exitDy=0;" edge="1" parent="1" source="hXmMG8xP3OP5kjvud1CD-5" target="hXmMG8xP3OP5kjvud1CD-6">
          <mxGeometry relative="1" as="geometry" />
        </mxCell>
        <mxCell id="hXmMG8xP3OP5kjvud1CD-5" value="3" style="ellipse;whiteSpace=wrap;html=1;aspect=fixed;" vertex="1" parent="1">
          <mxGeometry x="320" y="200" width="40" height="40" as="geometry" />
        </mxCell>
        <mxCell id="hXmMG8xP3OP5kjvud1CD-19" style="edgeStyle=orthogonalEdgeStyle;rounded=0;orthogonalLoop=1;jettySize=auto;html=1;exitX=0.5;exitY=1;exitDx=0;exitDy=0;entryX=0.5;entryY=0;entryDx=0;entryDy=0;" edge="1" parent="1" source="hXmMG8xP3OP5kjvud1CD-6" target="hXmMG8xP3OP5kjvud1CD-9">
          <mxGeometry relative="1" as="geometry" />
        </mxCell>
        <mxCell id="hXmMG8xP3OP5kjvud1CD-24" style="edgeStyle=orthogonalEdgeStyle;rounded=0;orthogonalLoop=1;jettySize=auto;html=1;exitX=1;exitY=0.5;exitDx=0;exitDy=0;entryX=0;entryY=0.5;entryDx=0;entryDy=0;" edge="1" parent="1" source="hXmMG8xP3OP5kjvud1CD-6" target="hXmMG8xP3OP5kjvud1CD-1">
          <mxGeometry relative="1" as="geometry" />
        </mxCell>
        <mxCell id="hXmMG8xP3OP5kjvud1CD-6" value="4" style="ellipse;whiteSpace=wrap;html=1;aspect=fixed;" vertex="1" parent="1">
          <mxGeometry x="400" y="200" width="40" height="40" as="geometry" />
        </mxCell>
        <mxCell id="hXmMG8xP3OP5kjvud1CD-16" style="edgeStyle=orthogonalEdgeStyle;rounded=0;orthogonalLoop=1;jettySize=auto;html=1;exitX=1;exitY=0.5;exitDx=0;exitDy=0;entryX=0;entryY=0.5;entryDx=0;entryDy=0;" edge="1" parent="1" source="hXmMG8xP3OP5kjvud1CD-7" target="hXmMG8xP3OP5kjvud1CD-2">
          <mxGeometry relative="1" as="geometry" />
        </mxCell>
        <mxCell id="hXmMG8xP3OP5kjvud1CD-7" value="1" style="ellipse;whiteSpace=wrap;html=1;aspect=fixed;" vertex="1" parent="1">
          <mxGeometry x="160" y="200" width="40" height="40" as="geometry" />
        </mxCell>
        <mxCell id="hXmMG8xP3OP5kjvud1CD-20" style="edgeStyle=orthogonalEdgeStyle;rounded=0;orthogonalLoop=1;jettySize=auto;html=1;exitX=0.5;exitY=1;exitDx=0;exitDy=0;entryX=0.5;entryY=0;entryDx=0;entryDy=0;" edge="1" parent="1" source="hXmMG8xP3OP5kjvud1CD-9" target="hXmMG8xP3OP5kjvud1CD-10">
          <mxGeometry relative="1" as="geometry" />
        </mxCell>
        <mxCell id="hXmMG8xP3OP5kjvud1CD-9" value="5" style="ellipse;whiteSpace=wrap;html=1;aspect=fixed;" vertex="1" parent="1">
          <mxGeometry x="400" y="320" width="40" height="40" as="geometry" />
        </mxCell>
        <mxCell id="hXmMG8xP3OP5kjvud1CD-21" style="edgeStyle=orthogonalEdgeStyle;rounded=0;orthogonalLoop=1;jettySize=auto;html=1;exitX=0;exitY=0.5;exitDx=0;exitDy=0;entryX=1;entryY=0.5;entryDx=0;entryDy=0;" edge="1" parent="1" source="hXmMG8xP3OP5kjvud1CD-10" target="hXmMG8xP3OP5kjvud1CD-11">
          <mxGeometry relative="1" as="geometry" />
        </mxCell>
        <mxCell id="hXmMG8xP3OP5kjvud1CD-23" style="edgeStyle=orthogonalEdgeStyle;rounded=0;orthogonalLoop=1;jettySize=auto;html=1;exitX=1;exitY=0.5;exitDx=0;exitDy=0;entryX=1;entryY=1;entryDx=0;entryDy=0;" edge="1" parent="1" source="hXmMG8xP3OP5kjvud1CD-10" target="hXmMG8xP3OP5kjvud1CD-6">
          <mxGeometry relative="1" as="geometry">
            <Array as="points">
              <mxPoint x="580" y="420" />
              <mxPoint x="580" y="250" />
              <mxPoint x="434" y="250" />
            </Array>
          </mxGeometry>
        </mxCell>
        <mxCell id="hXmMG8xP3OP5kjvud1CD-10" value="6" style="ellipse;whiteSpace=wrap;html=1;aspect=fixed;" vertex="1" parent="1">
          <mxGeometry x="400" y="400" width="40" height="40" as="geometry" />
        </mxCell>
        <mxCell id="hXmMG8xP3OP5kjvud1CD-22" style="rounded=0;orthogonalLoop=1;jettySize=auto;html=1;exitX=1;exitY=0;exitDx=0;exitDy=0;entryX=0;entryY=1;entryDx=0;entryDy=0;" edge="1" parent="1" source="hXmMG8xP3OP5kjvud1CD-11" target="hXmMG8xP3OP5kjvud1CD-6">
          <mxGeometry relative="1" as="geometry" />
        </mxCell>
        <mxCell id="hXmMG8xP3OP5kjvud1CD-11" value="7" style="ellipse;whiteSpace=wrap;html=1;aspect=fixed;" vertex="1" parent="1">
          <mxGeometry x="280" y="400" width="40" height="40" as="geometry" />
        </mxCell>
        <mxCell id="hXmMG8xP3OP5kjvud1CD-26" style="edgeStyle=orthogonalEdgeStyle;rounded=0;orthogonalLoop=1;jettySize=auto;html=1;exitX=0.5;exitY=1;exitDx=0;exitDy=0;entryX=0.5;entryY=0;entryDx=0;entryDy=0;" edge="1" parent="1" source="hXmMG8xP3OP5kjvud1CD-12" target="hXmMG8xP3OP5kjvud1CD-13">
          <mxGeometry relative="1" as="geometry" />
        </mxCell>
        <mxCell id="hXmMG8xP3OP5kjvud1CD-12" value="9" style="ellipse;whiteSpace=wrap;html=1;aspect=fixed;" vertex="1" parent="1">
          <mxGeometry x="720" y="320" width="40" height="40" as="geometry" />
        </mxCell>
        <mxCell id="hXmMG8xP3OP5kjvud1CD-27" style="edgeStyle=orthogonalEdgeStyle;rounded=0;orthogonalLoop=1;jettySize=auto;html=1;exitX=0;exitY=0.5;exitDx=0;exitDy=0;entryX=1;entryY=0.5;entryDx=0;entryDy=0;" edge="1" parent="1" source="hXmMG8xP3OP5kjvud1CD-13" target="hXmMG8xP3OP5kjvud1CD-14">
          <mxGeometry relative="1" as="geometry" />
        </mxCell>
        <mxCell id="hXmMG8xP3OP5kjvud1CD-45" style="edgeStyle=orthogonalEdgeStyle;rounded=0;orthogonalLoop=1;jettySize=auto;html=1;exitX=1;exitY=0.5;exitDx=0;exitDy=0;entryX=1;entryY=1;entryDx=0;entryDy=0;" edge="1" parent="1" source="hXmMG8xP3OP5kjvud1CD-13" target="hXmMG8xP3OP5kjvud1CD-1">
          <mxGeometry relative="1" as="geometry">
            <Array as="points">
              <mxPoint x="910" y="420" />
              <mxPoint x="910" y="280" />
              <mxPoint x="754" y="280" />
            </Array>
          </mxGeometry>
        </mxCell>
        <mxCell id="hXmMG8xP3OP5kjvud1CD-13" value="10" style="ellipse;whiteSpace=wrap;html=1;aspect=fixed;" vertex="1" parent="1">
          <mxGeometry x="720" y="400" width="40" height="40" as="geometry" />
        </mxCell>
        <mxCell id="hXmMG8xP3OP5kjvud1CD-28" style="rounded=0;orthogonalLoop=1;jettySize=auto;html=1;exitX=1;exitY=0;exitDx=0;exitDy=0;entryX=0;entryY=1;entryDx=0;entryDy=0;" edge="1" parent="1" source="hXmMG8xP3OP5kjvud1CD-14" target="hXmMG8xP3OP5kjvud1CD-1">
          <mxGeometry relative="1" as="geometry" />
        </mxCell>
        <mxCell id="hXmMG8xP3OP5kjvud1CD-14" value="11" style="ellipse;whiteSpace=wrap;html=1;aspect=fixed;" vertex="1" parent="1">
          <mxGeometry x="600" y="400" width="40" height="40" as="geometry" />
        </mxCell>
        <mxCell id="hXmMG8xP3OP5kjvud1CD-15" value="12" style="ellipse;whiteSpace=wrap;html=1;aspect=fixed;" vertex="1" parent="1">
          <mxGeometry x="880" y="200" width="40" height="40" as="geometry" />
        </mxCell>
        <mxCell id="hXmMG8xP3OP5kjvud1CD-30" value="p-use {data}" style="text;html=1;align=center;verticalAlign=middle;whiteSpace=wrap;rounded=0;" vertex="1" parent="1">
          <mxGeometry x="150" y="250" width="60" height="30" as="geometry" />
        </mxCell>
        <mxCell id="hXmMG8xP3OP5kjvud1CD-31" value="Def: {total}" style="text;html=1;align=center;verticalAlign=middle;whiteSpace=wrap;rounded=0;" vertex="1" parent="1">
          <mxGeometry x="230" y="160" width="60" height="30" as="geometry" />
        </mxCell>
        <mxCell id="hXmMG8xP3OP5kjvud1CD-32" value="Def {r}&lt;div&gt;p-use {r, rowCount}&lt;/div&gt;" style="text;html=1;align=center;verticalAlign=middle;whiteSpace=wrap;rounded=0;" vertex="1" parent="1">
          <mxGeometry x="390" y="160" width="120" height="30" as="geometry" />
        </mxCell>
        <mxCell id="hXmMG8xP3OP5kjvud1CD-34" style="edgeStyle=orthogonalEdgeStyle;rounded=0;orthogonalLoop=1;jettySize=auto;html=1;exitX=1;exitY=0.5;exitDx=0;exitDy=0;entryX=0;entryY=0.5;entryDx=0;entryDy=0;" edge="1" parent="1" source="hXmMG8xP3OP5kjvud1CD-33" target="hXmMG8xP3OP5kjvud1CD-7">
          <mxGeometry relative="1" as="geometry" />
        </mxCell>
        <mxCell id="hXmMG8xP3OP5kjvud1CD-33" value="Start" style="ellipse;whiteSpace=wrap;html=1;aspect=fixed;" vertex="1" parent="1">
          <mxGeometry x="80" y="200" width="40" height="40" as="geometry" />
        </mxCell>
        <mxCell id="hXmMG8xP3OP5kjvud1CD-35" value="Def: {rowCount}&lt;div&gt;c-use {data}&lt;/div&gt;" style="text;html=1;align=center;verticalAlign=middle;whiteSpace=wrap;rounded=0;" vertex="1" parent="1">
          <mxGeometry x="295" y="160" width="90" height="30" as="geometry" />
        </mxCell>
        <mxCell id="hXmMG8xP3OP5kjvud1CD-36" value="Def: {n}&lt;div&gt;c-use: {data, r, column}&lt;/div&gt;" style="text;html=1;align=center;verticalAlign=middle;whiteSpace=wrap;rounded=0;" vertex="1" parent="1">
          <mxGeometry x="440" y="325" width="130" height="30" as="geometry" />
        </mxCell>
        <mxCell id="hXmMG8xP3OP5kjvud1CD-37" value="p-use: {n}" style="text;html=1;align=center;verticalAlign=middle;whiteSpace=wrap;rounded=0;" vertex="1" parent="1">
          <mxGeometry x="385" y="450" width="70" height="30" as="geometry" />
        </mxCell>
        <mxCell id="hXmMG8xP3OP5kjvud1CD-38" value="Def: {total}&lt;div&gt;c-use: {n}&lt;/div&gt;" style="text;html=1;align=center;verticalAlign=middle;whiteSpace=wrap;rounded=0;" vertex="1" parent="1">
          <mxGeometry x="260" y="450" width="80" height="30" as="geometry" />
        </mxCell>
        <mxCell id="hXmMG8xP3OP5kjvud1CD-39" value="n != null" style="text;html=1;align=center;verticalAlign=middle;whiteSpace=wrap;rounded=0;" vertex="1" parent="1">
          <mxGeometry x="340" y="390" width="50" height="30" as="geometry" />
        </mxCell>
        <mxCell id="hXmMG8xP3OP5kjvud1CD-40" value="n == null" style="text;html=1;align=center;verticalAlign=middle;whiteSpace=wrap;rounded=0;" vertex="1" parent="1">
          <mxGeometry x="470" y="390" width="60" height="30" as="geometry" />
        </mxCell>
        <mxCell id="hXmMG8xP3OP5kjvud1CD-42" value="r &amp;gt;= rowCount" style="text;html=1;align=center;verticalAlign=middle;whiteSpace=wrap;rounded=0;" vertex="1" parent="1">
          <mxGeometry x="530" y="190" width="80" height="30" as="geometry" />
        </mxCell>
        <mxCell id="hXmMG8xP3OP5kjvud1CD-43" value="Def {r2}&lt;div&gt;p-use {r2, rowCount}&lt;/div&gt;" style="text;html=1;align=center;verticalAlign=middle;whiteSpace=wrap;rounded=0;" vertex="1" parent="1">
          <mxGeometry x="680" y="160" width="120" height="30" as="geometry" />
        </mxCell>
        <mxCell id="hXmMG8xP3OP5kjvud1CD-44" value="Def: {n}&lt;div&gt;c-use: {data, r2, column}&lt;/div&gt;" style="text;html=1;align=center;verticalAlign=middle;whiteSpace=wrap;rounded=0;" vertex="1" parent="1">
          <mxGeometry x="760" y="325" width="140" height="30" as="geometry" />
        </mxCell>
        <mxCell id="hXmMG8xP3OP5kjvud1CD-46" value="n == null" style="text;html=1;align=center;verticalAlign=middle;whiteSpace=wrap;rounded=0;" vertex="1" parent="1">
          <mxGeometry x="790" y="390" width="60" height="30" as="geometry" />
        </mxCell>
        <mxCell id="hXmMG8xP3OP5kjvud1CD-47" value="n != null" style="text;html=1;align=center;verticalAlign=middle;whiteSpace=wrap;rounded=0;" vertex="1" parent="1">
          <mxGeometry x="660" y="390" width="50" height="30" as="geometry" />
        </mxCell>
        <mxCell id="hXmMG8xP3OP5kjvud1CD-48" value="Def: {total}&lt;div&gt;c-use: {n}&lt;/div&gt;" style="text;html=1;align=center;verticalAlign=middle;whiteSpace=wrap;rounded=0;" vertex="1" parent="1">
          <mxGeometry x="580" y="450" width="80" height="30" as="geometry" />
        </mxCell>
        <mxCell id="hXmMG8xP3OP5kjvud1CD-49" value="p-use: {n}" style="text;html=1;align=center;verticalAlign=middle;whiteSpace=wrap;rounded=0;" vertex="1" parent="1">
          <mxGeometry x="710" y="450" width="70" height="30" as="geometry" />
        </mxCell>
        <mxCell id="hXmMG8xP3OP5kjvud1CD-50" value="c-use: {total}&lt;div&gt;&lt;br&gt;&lt;/div&gt;" style="text;html=1;align=center;verticalAlign=middle;whiteSpace=wrap;rounded=0;" vertex="1" parent="1">
          <mxGeometry x="860" y="170" width="80" height="30" as="geometry" />
        </mxCell>
      </root>
    </mxGraphModel>
  </diagram>
</mxfile>
